#!OML:ASF H:\ManfredETheater\Project 1\Capture day 1\Session 1\subject.ASF
:FULLY-SPECIFIED
:DEGREES
232
root -1.88883 16.9886 -33.314 187.922 -44.4704 -175.075
lowerback 27.1523 -3.92306 2.91659
upperback 2.77883 -4.35533 3.40884
thorax -11.8906 -2.26685 3.84555
lowerneck -10.3143 -11.8689 -9.04705
upperneck 0.155979 -15.9278 17.0035
head 3.88347 -7.58685 5.36846
rclavicle -4.04154e-014 3.72349e-014
rhumerus -24.8047 -11.0623 -72.6892
rradius 52.4375
rwrist -2.15425
rhand -25.6146 -13.6217
rfingers 7.12502
rthumb 0.917981 -43.5995
lclavicle -4.04154e-014 3.72349e-014
lhumerus -22.6635 2.48544 81.7452
lradius 55.4259
lwrist -17.7143
lhand -33.4687 3.52307
lfingers 7.12502
lthumb -6.66672 33.3981
rfemur -59.843 -18.9919 43.3388
rtibia 73.3007
rfoot 15.147 22.8952
rtoes -7.58366
lfemur -66.7048 4.62088 -12.9975
ltibia 109.759
lfoot -13.0112 13.922
ltoes 19.8306
233
root -1.87974 17.0888 -33.439 187.654 -42.9371 -174.537
lowerback 27.1841 -3.63551 3.2637
upperback 2.82521 -3.88449 3.59322
thorax -11.877 -2.07473 3.6877
lowerneck -10.4808 -11.7237 -8.90651
upperneck 0.0811031 -15.6977 16.6833
head 3.81636 -7.47694 5.27372
rclavicle 3.27001e-014 -1.87355e-014
rhumerus -23.4597 -11.6042 -73.3397
rradius 49.7499
rwrist -3.27735
rhand -24.8575 -14.0728
rfingers 7.12502
rthumb 1.64915 -44.0462
lclavicle 3.27001e-014 -1.87355e-014
lhumerus -22.9838 2.46701 81.5574
lradius 55.3774
lwrist -17.2584
lhand -33.7066 3.59796
lfingers 7.12502
lthumb -6.89633 33.4656
rfemur -59.6292 -18.8656 42.7052
rtibia 73.7855
rfoot 14.4456 23.5087
rtoes -11.2767
lfemur -67.1256 4.22739 -11.5772
ltibia 107.234
lfoot -13.7516 12.7234
ltoes 18.0081
234
root -1.87276 17.18 -33.5633 187.535 -41.3934 -174.213
lowerback 27.2223 -3.33598 3.5842
upperback 2.86538 -3.40886 3.73329
thorax -11.8725 -1.87942 3.49273
lowerneck -10.6267 -11.6095 -8.83448
upperneck -0.000353896 -15.4988 16.349
head 3.75266 -7.38313 5.18217
rclavicle -4.91992e-015 1.46107e-014
rhumerus -22.1559 -12.136 -73.8854
rradius 47.1643
rwrist -4.42653
rhand -23.9767 -14.5678
rfingers 7.12502
rthumb 2.4999 -44.5329
lclavicle -4.91992e-015 1.46107e-014
lhumerus -23.2984 2.34832 81.4057
lradius 55.2633
lwrist -16.8529
lhand -33.8515 3.64586
lfingers 7.12502
lthumb -7.03625 33.5089
rfemur -59.5153 -18.7654 41.8117
rtibia 74.5221
rfoot 12.5907 23.7546
rtoes -15.3816
lfemur -67.3673 3.91842 -10.3251
ltibia 104.523
lfoot -14.3739 11.2001
ltoes 15.8658
235
root -1.86702 17.2647 -33.687 187.545 -39.8631 -174.085
lowerback 27.2644 -3.03296 3.8893
upperback 2.89588 -2.93482 3.83106
thorax -11.8791 -1.68409 3.25876
lowerneck -10.7336 -11.5274 -8.841
upperneck -0.102693 -15.332 16.0138
head 3.68695 -7.30696 5.10055
rclavicle 3.22031e-014 -3.37934e-015
rhumerus -20.9449 -12.6861 -74.3274
rradius 44.7485
rwrist -5.48018
rhand -23.0533 -15.0804
rfingers 7.12502
rthumb 3.39162 -45.0332
lclavicle 3.22031e-014 -3.37934e-015
lhumerus -23.5955 2.14531 81.2936
lradius 55.0811
lwrist -16.5203
lhand -33.8711 3.64656
lfingers 7.12502
lthumb -7.05517 33.509
rfemur -59.473 -18.6868 40.6384
rtibia 75.3986
rfoot 9.95265 23.518
rtoes -19.3694
lfemur -67.4347 3.66623 -9.247
ltibia 101.604
lfoot -14.8246 9.37282
ltoes 13.4092
